# xmcd
#
# Track frame offsets:
#      150
#      21527
#      42179
#      53286
#      75780
#      95839
#      108064
#      131993
#      149513
#      172035
# 
# Disc length: 2571 seconds
#
# Revision: 2
# Processed by: cddbd v1.4PL0 Copyright (c) Steve Scherf et al.
#
# Submitted via: FreeRIP 1.21
#
DISCID=800a090a
DTITLE=劉若英 - 很愛很愛你
DYEAR=1900
DGENRE=Blues
TTITLE0=很愛很愛你
TTITLE1=花季未了
TTITLE2=FLYING！
TTITLE3=好久好久
TTITLE4=最初的地方
TTITLE5=透明
TTITLE6=你說的對
TTITLE7=夢童
TTITLE8=距離
TTITLE9=多個朋友
EXTD=
EXTT0=
EXTT1=
EXTT2=
EXTT3=
EXTT4=
EXTT5=
EXTT6=
EXTT7=
EXTT8=
EXTT9=
PLAYORDER=
